<svg viewBox="0 0 62 62" xmlns="http://www.w3.org/2000/svg" xmlns:xlink="http://www.w3.org/1999/xlink" width="62.000000" height="62.000000" fill="none">
	<rect id="image 27 1" width="62.000000" height="62.000000" x="0.000000" y="0.000000" fill="rgb(255,255,255)" fill-opacity="0" />
	<path id="Vector" d="M40.0843 9.5179C46.8523 5.56298 55.0431 11.7351 53.5548 19.2902C52.9251 22.4834 50.6255 24.9549 47.5958 26.1199C47.5514 26.1368 47.5292 26.1691 47.5292 26.2167L47.5292 29.9961C47.5292 30.0332 47.5413 30.0655 47.5655 30.0929C49.0356 31.7325 49.5914 33.4763 49.5902 35.6475C49.5886 37.095 49.5874 38.5421 49.5866 39.9887C49.5858 41.1383 49.5458 41.9436 49.4667 42.4045C49.1288 44.3796 47.8004 46.6791 45.7648 47.3246C45.7253 47.3367 45.6978 47.3621 45.6825 47.4009C42.7835 54.6604 36.2081 58.8854 28.3697 57.6248C22.6456 56.7057 18.4086 52.66 16.3354 47.4239C16.3256 47.3986 16.3101 47.3758 16.2902 47.3573C16.2703 47.3389 16.2464 47.3252 16.2204 47.3173C14.2889 46.7143 13.0114 44.5794 12.5961 42.723C12.4814 42.208 12.4213 41.4059 12.4156 40.3169C12.4027 37.6278 12.4019 35.7835 12.4132 34.7841C12.4374 32.7376 13.4195 30.3606 14.4427 28.6168C14.4613 28.5853 14.4706 28.5514 14.4706 28.5151L14.4706 24.1279C14.4706 24.0859 14.4512 24.0576 14.4125 24.0431C5.86809 20.839 6.47356 9.08802 15.0349 6.5511C18.0041 5.67075 20.7239 6.49056 23.0949 8.34208C23.1158 8.35834 23.1423 8.36568 23.1686 8.36251C23.1949 8.35933 23.2189 8.3459 23.2354 8.32513C26.0254 4.72864 30.197 3.12778 34.5673 4.79888C37.0437 5.74704 38.5356 7.28735 39.9802 9.49368C40.0068 9.53485 40.0416 9.54292 40.0843 9.5179ZM42.7097 44.1289C43.1807 44.0127 43.6929 43.9291 44.0841 43.699C45.5272 42.8513 45.5017 41.3936 45.4756 39.8982C45.4731 39.7574 45.4706 39.6163 45.4694 39.4753C45.4452 36.586 43.1335 34.3034 40.5554 33.3358C39.695 33.0121 38.7414 33.0319 37.8205 33.0511C37.6358 33.0549 37.4524 33.0587 37.2713 33.0597Q37.2404 33.0597 37.2135 33.07Q37.1866 33.0803 37.1636 33.1009C35.9575 34.1859 34.1762 34.634 32.5729 34.8362C29.0357 35.2854 25.4526 35.2309 21.8973 35.4804C20.1511 35.6027 16.5885 35.9502 16.5401 38.3854C16.528 38.9933 16.5251 39.6012 16.5316 40.2091C16.5486 41.7615 16.5522 42.8017 17.8031 43.6312C18.2245 43.9109 18.7646 44.0018 19.2756 44.1216C19.3091 44.1294 19.3399 44.1459 19.365 44.1695C19.3901 44.1931 19.4085 44.223 19.4185 44.2561C21.1307 50.0625 25.9394 54.2875 32.2459 53.6554C36.9347 53.1843 40.4234 49.8494 42.0933 45.5881C42.2725 45.1304 42.4485 44.6702 42.6213 44.2076C42.6374 44.1665 42.6669 44.1402 42.7097 44.1289Z" fill="rgb(251.812,130.827,67.15)" fill-rule="evenodd" />
</svg>
